<?xml version="1.0" encoding="UTF-8" standalone="no"?>
<!DOCTYPE svg PUBLIC "-//W3C//DTD SVG 1.1//EN"
 "http://www.w3.org/Graphics/SVG/1.1/DTD/svg11.dtd">
<!-- Generated by graphviz version 2.43.20190912.0211 (20190912.0211)
 -->
<!-- Title: dependency&#45;cruiser output Pages: 1 -->
<svg width="303pt" height="246pt"
 viewBox="0.00 0.00 303.00 246.00" xmlns="http://www.w3.org/2000/svg" xmlns:xlink="http://www.w3.org/1999/xlink">
<g id="graph0" class="graph" transform="scale(1 1) rotate(0) translate(4 242)">
<title>dependency&#45;cruiser output</title>
<polygon fill="white" stroke="transparent" points="-4,4 -4,-242 299,-242 299,4 -4,4"/>
<g id="clust1" class="cluster">
<title>cluster_src</title>
<path fill="#ffffff" stroke="black" stroke-width="2" d="M20,-26C20,-26 275,-26 275,-26 281,-26 287,-32 287,-38 287,-38 287,-200 287,-200 287,-206 281,-212 275,-212 275,-212 20,-212 20,-212 14,-212 8,-206 8,-200 8,-200 8,-38 8,-38 8,-32 14,-26 20,-26"/>
<text text-anchor="middle" x="147.5" y="-200.8" font-family="Helvetica,sans-Serif" font-weight="bold" font-size="9.00">src</text>
</g>
<!-- fs -->
<g id="node1" class="node">
<title>fs</title>
<path fill="#ffffcc" stroke="grey" d="M261.5,-238C261.5,-238 219.5,-238 219.5,-238 216.5,-238 213.5,-235 213.5,-232 213.5,-232 213.5,-226 213.5,-226 213.5,-223 216.5,-220 219.5,-220 219.5,-220 261.5,-220 261.5,-220 264.5,-220 267.5,-223 267.5,-226 267.5,-226 267.5,-232 267.5,-232 267.5,-235 264.5,-238 261.5,-238"/>
<text text-anchor="middle" x="240.5" y="-226.8" font-family="Helvetica,sans-Serif" font-size="9.00" fill="grey">fs</text>
</g>
<!-- path -->
<g id="node2" class="node">
<title>path</title>
<path fill="#ffffcc" stroke="grey" d="M261.5,-18C261.5,-18 219.5,-18 219.5,-18 216.5,-18 213.5,-15 213.5,-12 213.5,-12 213.5,-6 213.5,-6 213.5,-3 216.5,0 219.5,0 219.5,0 261.5,0 261.5,0 264.5,0 267.5,-3 267.5,-6 267.5,-6 267.5,-12 267.5,-12 267.5,-15 264.5,-18 261.5,-18"/>
<text text-anchor="middle" x="240.5" y="-6.8" font-family="Helvetica,sans-Serif" font-size="9.00" fill="grey">path</text>
</g>
<!-- src/cache&#45;provider.js -->
<g id="node3" class="node">
<title>src/cache&#45;provider.js</title>
<g id="a_node3"><a xlink:href="https://github.com/dragonman225/notablog/tree/master/src/cache-provider.js" xlink:title="cache&#45;provider.js">
<path fill="#ffffcc" stroke="black" d="M176,-52C176,-52 96,-52 96,-52 93,-52 90,-49 90,-46 90,-46 90,-40 90,-40 90,-37 93,-34 96,-34 96,-34 176,-34 176,-34 179,-34 182,-37 182,-40 182,-40 182,-46 182,-46 182,-49 179,-52 176,-52"/>
<text text-anchor="middle" x="136" y="-40.8" font-family="Helvetica,sans-Serif" font-size="9.00">cache&#45;provider.js</text>
</a>
</g>
</g>
<!-- src/cache&#45;provider.js&#45;&gt;fs -->
<g id="edge2" class="edge">
<title>src/cache&#45;provider.js&#45;&gt;fs</title>
<path fill="none" stroke="grey" d="M182.39,-52.01C184.85,-53.7 187.09,-55.67 189,-58 211.18,-85.08 180.87,-187.09 202,-215 202.8,-216.06 203.69,-217.04 204.66,-217.94"/>
<polygon fill="grey" stroke="grey" points="202.87,-220.96 213.15,-223.53 206.72,-215.11 202.87,-220.96"/>
</g>
<!-- src/cache&#45;provider.js&#45;&gt;path -->
<g id="edge3" class="edge">
<title>src/cache&#45;provider.js&#45;&gt;path</title>
<path fill="none" stroke="grey" d="M164.2,-33.98C176.3,-29.96 190.71,-25.18 203.67,-20.88"/>
<polygon fill="grey" stroke="grey" points="204.85,-24.18 213.24,-17.71 202.64,-17.54 204.85,-24.18"/>
</g>
<!-- src/utils.js -->
<g id="node10" class="node">
<title>src/utils.js</title>
<g id="a_node10"><a xlink:href="https://github.com/dragonman225/notablog/tree/master/src/utils.js" xlink:title="utils.js">
<path fill="#ffffcc" stroke="black" d="M261.5,-127C261.5,-127 219.5,-127 219.5,-127 216.5,-127 213.5,-124 213.5,-121 213.5,-121 213.5,-115 213.5,-115 213.5,-112 216.5,-109 219.5,-109 219.5,-109 261.5,-109 261.5,-109 264.5,-109 267.5,-112 267.5,-115 267.5,-115 267.5,-121 267.5,-121 267.5,-124 264.5,-127 261.5,-127"/>
<text text-anchor="middle" x="240.5" y="-115.8" font-family="Helvetica,sans-Serif" font-size="9.00">utils.js</text>
</a>
</g>
</g>
<!-- src/cache&#45;provider.js&#45;&gt;src/utils.js -->
<g id="edge1" class="edge">
<title>src/cache&#45;provider.js&#45;&gt;src/utils.js</title>
<path fill="none" stroke="#000000" stroke-width="2" stroke-opacity="0.200000" d="M177.52,-52.08C181.55,-53.74 185.45,-55.7 189,-58 205.7,-68.85 219.8,-86.88 228.82,-100.35"/>
<polygon fill="#000000" fill-opacity="0.200000" stroke="#000000" stroke-width="2" stroke-opacity="0.200000" points="225.89,-102.26 234.22,-108.8 231.79,-98.49 225.89,-102.26"/>
</g>
<!-- src/index.js -->
<g id="node4" class="node">
<title>src/index.js</title>
<g id="a_node4"><a xlink:href="https://github.com/dragonman225/notablog/tree/master/src/index.js" xlink:title="index.js">
<path fill="#ffffcc" stroke="black" d="M64,-127C64,-127 22,-127 22,-127 19,-127 16,-124 16,-121 16,-121 16,-115 16,-115 16,-112 19,-109 22,-109 22,-109 64,-109 64,-109 67,-109 70,-112 70,-115 70,-115 70,-121 70,-121 70,-124 67,-127 64,-127"/>
<text text-anchor="middle" x="43" y="-115.8" font-family="Helvetica,sans-Serif" font-size="9.00">index.js</text>
</a>
</g>
</g>
<!-- src/index.js&#45;&gt;fs -->
<g id="edge10" class="edge">
<title>src/index.js&#45;&gt;fs</title>
<path fill="none" stroke="grey" d="M46.16,-127.1C50.38,-142.87 61.3,-175.19 83,-192 117.81,-218.96 169.11,-226.74 203.39,-228.75"/>
<polygon fill="grey" stroke="grey" points="203.29,-232.25 213.44,-229.2 203.6,-225.25 203.29,-232.25"/>
</g>
<!-- src/index.js&#45;&gt;path -->
<g id="edge11" class="edge">
<title>src/index.js&#45;&gt;path</title>
<path fill="none" stroke="grey" d="M45.02,-108.78C47.6,-90.12 56.26,-47.97 83,-28 117.58,-2.18 168.94,-0.96 203.29,-3.83"/>
<polygon fill="grey" stroke="grey" points="203.06,-7.33 213.36,-4.83 203.76,-0.36 203.06,-7.33"/>
</g>
<!-- src/index.js&#45;&gt;src/cache&#45;provider.js -->
<g id="edge4" class="edge">
<title>src/index.js&#45;&gt;src/cache&#45;provider.js</title>
<path fill="none" stroke="#000000" stroke-width="2" stroke-opacity="0.200000" d="M47.52,-108.8C53.05,-95.57 65.03,-71.31 83,-58 83.39,-57.71 83.78,-57.43 84.18,-57.16"/>
<polygon fill="#000000" fill-opacity="0.200000" stroke="#000000" stroke-width="2" stroke-opacity="0.200000" points="86.13,-60.07 93.12,-52.12 82.69,-53.97 86.13,-60.07"/>
</g>
<!-- src/parse&#45;table.js -->
<g id="node6" class="node">
<title>src/parse&#45;table.js</title>
<g id="a_node6"><a xlink:href="https://github.com/dragonman225/notablog/tree/master/src/parse-table.js" xlink:title="parse&#45;table.js">
<path fill="#ffffcc" stroke="black" d="M168.5,-186C168.5,-186 103.5,-186 103.5,-186 100.5,-186 97.5,-183 97.5,-180 97.5,-180 97.5,-174 97.5,-174 97.5,-171 100.5,-168 103.5,-168 103.5,-168 168.5,-168 168.5,-168 171.5,-168 174.5,-171 174.5,-174 174.5,-174 174.5,-180 174.5,-180 174.5,-183 171.5,-186 168.5,-186"/>
<text text-anchor="middle" x="136" y="-174.8" font-family="Helvetica,sans-Serif" font-size="9.00">parse&#45;table.js</text>
</a>
</g>
</g>
<!-- src/index.js&#45;&gt;src/parse&#45;table.js -->
<g id="edge5" class="edge">
<title>src/index.js&#45;&gt;src/parse&#45;table.js</title>
<path fill="none" stroke="#000000" stroke-width="2" stroke-opacity="0.200000" d="M50.5,-127.04C57.55,-136.26 69.62,-150.39 83,-159 85.77,-160.78 88.74,-162.41 91.8,-163.9"/>
<polygon fill="#000000" fill-opacity="0.200000" stroke="#000000" stroke-width="2" stroke-opacity="0.200000" points="90.6,-167.19 101.17,-167.93 93.37,-160.76 90.6,-167.19"/>
</g>
<!-- src/render&#45;index.js -->
<g id="node7" class="node">
<title>src/render&#45;index.js</title>
<g id="a_node7"><a xlink:href="https://github.com/dragonman225/notablog/tree/master/src/render-index.js" xlink:title="render&#45;index.js">
<path fill="#ffffcc" stroke="black" d="M172,-82C172,-82 100,-82 100,-82 97,-82 94,-79 94,-76 94,-76 94,-70 94,-70 94,-67 97,-64 100,-64 100,-64 172,-64 172,-64 175,-64 178,-67 178,-70 178,-70 178,-76 178,-76 178,-79 175,-82 172,-82"/>
<text text-anchor="middle" x="136" y="-70.8" font-family="Helvetica,sans-Serif" font-size="9.00">render&#45;index.js</text>
</a>
</g>
</g>
<!-- src/index.js&#45;&gt;src/render&#45;index.js -->
<g id="edge6" class="edge">
<title>src/index.js&#45;&gt;src/render&#45;index.js</title>
<path fill="none" stroke="#000000" stroke-width="2" stroke-opacity="0.200000" d="M53.56,-108.99C61.06,-102.35 72.02,-93.55 83,-88 84.56,-87.21 86.16,-86.46 87.8,-85.74"/>
<polygon fill="#000000" fill-opacity="0.200000" stroke="#000000" stroke-width="2" stroke-opacity="0.200000" points="89.37,-88.89 97.42,-82 86.83,-82.36 89.37,-88.89"/>
</g>
<!-- src/render&#45;post.js -->
<g id="node8" class="node">
<title>src/render&#45;post.js</title>
<g id="a_node8"><a xlink:href="https://github.com/dragonman225/notablog/tree/master/src/render-post.js" xlink:title="render&#45;post.js">
<path fill="#ffffcc" stroke="black" d="M169.5,-112C169.5,-112 102.5,-112 102.5,-112 99.5,-112 96.5,-109 96.5,-106 96.5,-106 96.5,-100 96.5,-100 96.5,-97 99.5,-94 102.5,-94 102.5,-94 169.5,-94 169.5,-94 172.5,-94 175.5,-97 175.5,-100 175.5,-100 175.5,-106 175.5,-106 175.5,-109 172.5,-112 169.5,-112"/>
<text text-anchor="middle" x="136" y="-100.8" font-family="Helvetica,sans-Serif" font-size="9.00">render&#45;post.js</text>
</a>
</g>
</g>
<!-- src/index.js&#45;&gt;src/render&#45;post.js -->
<g id="edge7" class="edge">
<title>src/index.js&#45;&gt;src/render&#45;post.js</title>
<path fill="none" stroke="#000000" stroke-width="2" stroke-opacity="0.200000" d="M70.32,-113.66C75.37,-112.83 80.81,-111.93 86.31,-111.03"/>
<polygon fill="#000000" fill-opacity="0.200000" stroke="#000000" stroke-width="2" stroke-opacity="0.200000" points="86.91,-114.47 96.21,-109.39 85.78,-107.57 86.91,-114.47"/>
</g>
<!-- src/template&#45;provider.js -->
<g id="node9" class="node">
<title>src/template&#45;provider.js</title>
<g id="a_node9"><a xlink:href="https://github.com/dragonman225/notablog/tree/master/src/template-provider.js" xlink:title="template&#45;provider.js">
<path fill="#ffffcc" stroke="black" d="M183,-142C183,-142 89,-142 89,-142 86,-142 83,-139 83,-136 83,-136 83,-130 83,-130 83,-127 86,-124 89,-124 89,-124 183,-124 183,-124 186,-124 189,-127 189,-130 189,-130 189,-136 189,-136 189,-139 186,-142 183,-142"/>
<text text-anchor="middle" x="136" y="-130.8" font-family="Helvetica,sans-Serif" font-size="9.00">template&#45;provider.js</text>
</a>
</g>
</g>
<!-- src/index.js&#45;&gt;src/template&#45;provider.js -->
<g id="edge8" class="edge">
<title>src/index.js&#45;&gt;src/template&#45;provider.js</title>
<path fill="none" stroke="#000000" stroke-width="2" stroke-opacity="0.200000" d="M70.32,-122.34C71.19,-122.48 72.08,-122.63 72.97,-122.78"/>
<polygon fill="#000000" fill-opacity="0.200000" stroke="#000000" stroke-width="2" stroke-opacity="0.200000" points="72.42,-126.23 82.85,-124.4 73.55,-119.32 72.42,-126.23"/>
</g>
<!-- src/index.js&#45;&gt;src/utils.js -->
<g id="edge9" class="edge">
<title>src/index.js&#45;&gt;src/utils.js</title>
<path fill="none" stroke="#000000" stroke-width="2" stroke-opacity="0.200000" d="M52.28,-127.05C59.56,-134.28 70.87,-143.87 83,-148 127.6,-163.17 143.57,-160.48 189,-148 199.95,-144.99 210.92,-138.93 219.83,-133.03"/>
<polygon fill="#000000" fill-opacity="0.200000" stroke="#000000" stroke-width="2" stroke-opacity="0.200000" points="222.12,-135.7 228.28,-127.09 218.09,-129.98 222.12,-135.7"/>
</g>
<!-- src/notion&#45;utils.js -->
<g id="node5" class="node">
<title>src/notion&#45;utils.js</title>
<g id="a_node5"><a xlink:href="https://github.com/dragonman225/notablog/tree/master/src/notion-utils.js" xlink:title="notion&#45;utils.js">
<path fill="#ffffcc" stroke="black" d="M273,-186C273,-186 208,-186 208,-186 205,-186 202,-183 202,-180 202,-180 202,-174 202,-174 202,-171 205,-168 208,-168 208,-168 273,-168 273,-168 276,-168 279,-171 279,-174 279,-174 279,-180 279,-180 279,-183 276,-186 273,-186"/>
<text text-anchor="middle" x="240.5" y="-174.8" font-family="Helvetica,sans-Serif" font-size="9.00">notion&#45;utils.js</text>
</a>
</g>
</g>
<!-- src/parse&#45;table.js&#45;&gt;src/notion&#45;utils.js -->
<g id="edge12" class="edge">
<title>src/parse&#45;table.js&#45;&gt;src/notion&#45;utils.js</title>
<path fill="none" stroke="#000000" stroke-width="2" stroke-opacity="0.200000" d="M174.59,-177C180.16,-177 185.96,-177 191.7,-177"/>
<polygon fill="#000000" fill-opacity="0.200000" stroke="#000000" stroke-width="2" stroke-opacity="0.200000" points="191.92,-180.5 201.92,-177 191.92,-173.5 191.92,-180.5"/>
</g>
<!-- src/parse&#45;table.js&#45;&gt;src/utils.js -->
<g id="edge13" class="edge">
<title>src/parse&#45;table.js&#45;&gt;src/utils.js</title>
<path fill="none" stroke="#000000" stroke-width="2" stroke-opacity="0.200000" d="M168.84,-167.95C175.68,-165.47 182.74,-162.48 189,-159 201.21,-152.21 213.42,-142.4 222.77,-134.08"/>
<polygon fill="#000000" fill-opacity="0.200000" stroke="#000000" stroke-width="2" stroke-opacity="0.200000" points="225.19,-136.61 230.18,-127.27 220.45,-131.46 225.19,-136.61"/>
</g>
<!-- src/render&#45;index.js&#45;&gt;fs -->
<g id="edge15" class="edge">
<title>src/render&#45;index.js&#45;&gt;fs</title>
<path fill="none" stroke="grey" d="M178.22,-79.63C182.32,-81.74 186.05,-84.47 189,-88 225.38,-131.54 167.31,-170.1 202,-215 202.81,-216.05 203.71,-217.02 204.68,-217.92"/>
<polygon fill="grey" stroke="grey" points="202.92,-220.95 213.21,-223.49 206.75,-215.09 202.92,-220.95"/>
</g>
<!-- src/render&#45;index.js&#45;&gt;path -->
<g id="edge16" class="edge">
<title>src/render&#45;index.js&#45;&gt;path</title>
<path fill="none" stroke="grey" d="M178.17,-65.21C182.12,-63.31 185.83,-60.94 189,-58 201.16,-46.71 190.28,-34.74 202,-23 202.79,-22.21 203.62,-21.47 204.49,-20.77"/>
<polygon fill="grey" stroke="grey" points="206.43,-23.68 213.16,-15.5 202.8,-17.7 206.43,-23.68"/>
</g>
<!-- src/render&#45;index.js&#45;&gt;src/utils.js -->
<g id="edge14" class="edge">
<title>src/render&#45;index.js&#45;&gt;src/utils.js</title>
<path fill="none" stroke="#000000" stroke-width="2" stroke-opacity="0.200000" d="M172.95,-82.07C178.41,-83.81 183.91,-85.8 189,-88 198.76,-92.22 208.95,-97.98 217.6,-103.33"/>
<polygon fill="#000000" fill-opacity="0.200000" stroke="#000000" stroke-width="2" stroke-opacity="0.200000" points="215.97,-106.44 226.28,-108.87 219.74,-100.54 215.97,-106.44"/>
</g>
<!-- src/render&#45;post.js&#45;&gt;fs -->
<g id="edge18" class="edge">
<title>src/render&#45;post.js&#45;&gt;fs</title>
<path fill="none" stroke="grey" d="M175.56,-108.52C180.67,-110.74 185.38,-113.8 189,-118 217.41,-150.94 174.87,-181 202,-215 202.83,-216.04 203.74,-217 204.73,-217.89"/>
<polygon fill="grey" stroke="grey" points="203,-220.94 213.3,-223.42 206.79,-215.06 203,-220.94"/>
</g>
<!-- src/render&#45;post.js&#45;&gt;path -->
<g id="edge19" class="edge">
<title>src/render&#45;post.js&#45;&gt;path</title>
<path fill="none" stroke="grey" d="M175.58,-97.16C180.62,-94.97 185.31,-92.01 189,-88 208.95,-66.32 182.9,-45.43 202,-23 202.86,-21.99 203.8,-21.05 204.81,-20.18"/>
<polygon fill="grey" stroke="grey" points="206.87,-23.02 213.49,-14.74 203.16,-17.08 206.87,-23.02"/>
</g>
<!-- src/render&#45;post.js&#45;&gt;src/utils.js -->
<g id="edge17" class="edge">
<title>src/render&#45;post.js&#45;&gt;src/utils.js</title>
<path fill="none" stroke="#000000" stroke-width="2" stroke-opacity="0.200000" d="M175.75,-108.67C184.8,-109.99 194.4,-111.4 203.32,-112.71"/>
<polygon fill="#000000" fill-opacity="0.200000" stroke="#000000" stroke-width="2" stroke-opacity="0.200000" points="203.02,-116.2 213.43,-114.18 204.04,-109.27 203.02,-116.2"/>
</g>
<!-- src/template&#45;provider.js&#45;&gt;fs -->
<g id="edge21" class="edge">
<title>src/template&#45;provider.js&#45;&gt;fs</title>
<path fill="none" stroke="grey" d="M162.53,-142.1C172.11,-146.69 182.29,-153.2 189,-162 203.7,-181.29 185.88,-196.88 202,-215 202.76,-215.86 203.58,-216.66 204.45,-217.42"/>
<polygon fill="grey" stroke="grey" points="202.91,-220.58 213.23,-222.97 206.65,-214.67 202.91,-220.58"/>
</g>
<!-- src/template&#45;provider.js&#45;&gt;path -->
<g id="edge22" class="edge">
<title>src/template&#45;provider.js&#45;&gt;path</title>
<path fill="none" stroke="grey" d="M182.25,-123.87C184.75,-122.21 187.03,-120.27 189,-118 216.87,-85.76 175.38,-56.28 202,-23 202.83,-21.96 203.75,-21 204.73,-20.11"/>
<polygon fill="grey" stroke="grey" points="206.79,-22.95 213.31,-14.59 203,-17.06 206.79,-22.95"/>
</g>
<!-- src/template&#45;provider.js&#45;&gt;src/utils.js -->
<g id="edge20" class="edge">
<title>src/template&#45;provider.js&#45;&gt;src/utils.js</title>
<path fill="none" stroke="#000000" stroke-width="2" stroke-opacity="0.200000" d="M189.15,-125.37C193.88,-124.68 198.6,-123.99 203.15,-123.32"/>
<polygon fill="#000000" fill-opacity="0.200000" stroke="#000000" stroke-width="2" stroke-opacity="0.200000" points="203.98,-126.73 213.37,-121.82 202.97,-119.81 203.98,-126.73"/>
</g>
</g>
</svg>
